<svg width="40" height="40" viewBox="0 0 40 40" fill="none" xmlns="http://www.w3.org/2000/svg">
<path fill-rule="evenodd" clip-rule="evenodd" d="M30.5961 5.71472C31.3602 4.95184 32.5973 4.95184 33.3594 5.71472C34.1235 6.47759 34.1235 7.71263 33.3594 8.47355C32.5973 9.23642 31.3602 9.23642 30.5961 8.47355C29.832 7.71263 29.832 6.47759 30.5961 5.71472ZM8.48695 33.3069C7.72484 34.0698 6.48774 34.0698 5.72367 33.3069C4.96155 32.546 4.96155 31.309 5.72367 30.5481C6.48774 29.7852 7.72484 29.7852 8.48695 30.5481C9.25103 31.309 9.25103 32.546 8.48695 33.3069ZM8.48696 8.47355C7.72484 9.23642 6.48774 9.23642 5.72367 8.47355C4.96155 7.71263 4.96155 6.47759 5.72367 5.71472C6.48774 4.95184 7.72484 4.95184 8.48696 5.71472C9.25103 6.47759 9.25103 7.71263 8.48696 8.47355ZM33.3594 33.3069C32.5973 34.0698 31.3602 34.0698 30.5961 33.3069C29.832 32.546 29.832 31.309 30.5961 30.5481C31.3602 29.7852 32.5973 29.7852 33.3594 30.5481C34.1235 31.309 34.1235 32.546 33.3594 33.3069ZM19.5415 3.90216C18.4628 3.90216 17.5874 3.02808 17.5874 1.95108C17.5874 0.874083 18.4628 -8.99922e-07 19.5415 -8.52845e-07C20.6202 -8.05768e-07 21.4957 0.874084 21.4957 1.95108C21.4957 3.02808 20.6202 3.90216 19.5415 3.90216ZM19.5415 39.0216C18.4628 39.0216 17.5874 38.1475 17.5874 37.0705C17.5874 35.9935 18.4628 35.1195 19.5415 35.1195C20.6202 35.1195 21.4957 35.9935 21.4957 37.0705C21.4957 38.1475 20.6202 39.0216 19.5415 39.0216ZM1.9542 21.4619C0.875518 21.4619 6.01338e-05 20.5878 6.0181e-05 19.5108C6.02281e-05 18.4338 0.875518 17.5597 1.9542 17.5597C3.03289 17.5597 3.90835 18.4338 3.90835 19.5108C3.90835 20.5878 3.03289 21.4619 1.9542 21.4619ZM37.1289 17.5597C38.2075 17.5597 39.083 18.4338 39.083 19.5108C39.083 20.5878 38.2075 21.4619 37.1289 21.4619C36.0502 21.4619 35.1747 20.5878 35.1747 19.5108C35.1747 18.4338 36.0502 17.5597 37.1289 17.5597Z" fill="#F97314"/>
<path fill-rule="evenodd" clip-rule="evenodd" d="M19.5414 33.291C27.1253 33.291 33.2733 27.1431 33.2733 19.5593C33.2733 11.9755 27.1253 5.82764 19.5414 5.82764C11.9575 5.82764 5.80957 11.9755 5.80957 19.5593C5.80957 27.1431 11.9575 33.291 19.5414 33.291ZM19.5412 30.122C25.3749 30.122 30.1041 25.3929 30.1041 19.5592C30.1041 13.7256 25.3749 8.99642 19.5412 8.99642C13.7074 8.99642 8.97819 13.7256 8.97819 19.5592C8.97819 25.3929 13.7074 30.122 19.5412 30.122Z" fill="#F97314"/>
<path d="M26.8616 22.8567L24.5075 25.1527C24.4566 25.2025 24.395 25.2424 24.3264 25.2696C24.2578 25.2968 24.1838 25.3109 24.109 25.311H12.9498C12.8966 25.311 12.8445 25.2968 12.8 25.2703C12.7555 25.2438 12.7204 25.206 12.6991 25.1616C12.6778 25.1172 12.6712 25.0682 12.6801 25.0205C12.689 24.9727 12.713 24.9284 12.7492 24.8929L15.1006 22.5968C15.1515 22.547 15.2132 22.5072 15.2817 22.4799C15.3503 22.4527 15.4243 22.4386 15.4991 22.4385H26.6583C26.712 22.4375 26.7649 22.451 26.8102 22.4772C26.8555 22.5035 26.8913 22.5413 26.913 22.586C26.9348 22.6307 26.9414 22.6803 26.9323 22.7284C26.9231 22.7766 26.8985 22.8212 26.8616 22.8567ZM24.5075 18.232C24.4564 18.1823 24.3947 18.1427 24.3262 18.1155C24.2577 18.0883 24.1838 18.074 24.109 18.0737H12.9498C12.8966 18.0737 12.8445 18.0878 12.8 18.1144C12.7555 18.1409 12.7204 18.1787 12.6991 18.223C12.6778 18.2674 12.6712 18.3165 12.6801 18.3642C12.689 18.4119 12.713 18.4563 12.7492 18.4918L15.1006 20.789C15.1517 20.8387 15.2134 20.8783 15.2819 20.9055C15.3504 20.9328 15.4244 20.947 15.4991 20.9473H26.6583C26.7115 20.9471 26.7633 20.9327 26.8077 20.9061C26.852 20.8795 26.8868 20.8417 26.908 20.7974C26.9291 20.7531 26.9356 20.7041 26.9265 20.6565C26.9176 20.6089 26.8937 20.5646 26.8576 20.5292L24.5075 18.232ZM12.9498 16.5825H24.109C24.1838 16.5824 24.2578 16.5683 24.3264 16.5411C24.395 16.5138 24.4566 16.474 24.5075 16.4242L26.8616 14.1281C26.8985 14.0927 26.9231 14.0481 26.9323 13.9999C26.9414 13.9517 26.9348 13.9022 26.913 13.8575C26.8913 13.8128 26.8555 13.775 26.8102 13.7487C26.7649 13.7225 26.712 13.709 26.6583 13.71H15.4991C15.4243 13.7101 15.3503 13.7242 15.2817 13.7514C15.2132 13.7787 15.1515 13.8184 15.1006 13.8683L12.7492 16.1643C12.713 16.1999 12.689 16.2442 12.6801 16.2919C12.6712 16.3397 12.6778 16.3887 12.6991 16.4331C12.7204 16.4775 12.7555 16.5152 12.8 16.5418C12.8445 16.5683 12.8966 16.5824 12.9498 16.5825Z" fill="#F97314"/>
</svg>
